Coordinates
version=1
nRows=11
nColumns=46
inDegrees=yes

Units are S.I. units (second, meters, Newtons, ...)
Angles are in degrees.

endheader
time	pelvis_tilt	pelvis_list	pelvis_rotation	pelvis_tx	pelvis_ty	pelvis_tz	bb_angle	bb_tx	bb_ty	bb_tz	hip_flexion_r	hip_adduction_r	hip_rotation_r	knee_angle_r	knee_angle_r_beta	ankle_angle_r	subtalar_angle_r	mtp_angle_r	crank_angle_r	hip_flexion_l	hip_adduction_l	hip_rotation_l	knee_angle_l	knee_angle_l_beta	ankle_angle_l	subtalar_angle_l	mtp_angle_l	crank_angle_l	lumbar_extension	lumbar_bending	lumbar_rotation	arm_flex_r	arm_add_r	arm_rot_r	elbow_flex_r	pro_sup_r	wrist_flex_r	wrist_dev_r	arm_flex_l	arm_add_l	arm_rot_l	elbow_flex_l	pro_sup_l	wrist_flex_l	wrist_dev_l
      7.50500000	    -18.54928805	     -5.36001252	      4.15999782	      0.37634940	      1.18549699	     -0.22371704	      0.00000000	      0.50000000	      0.00000000	      0.25000000	     60.84241383	     -8.73927736	     -5.66452756	    101.67957388	      1.77464335	     -7.29476869	     -3.13889182	      0.00000000	      0.00000000	     45.09893688	     -8.02846755	      2.24962413	     46.36748908	      0.80926535	      5.14861164	     -1.62884769	      0.00000000	      0.00000000	    -58.08618001	      5.40511425	      2.02847045	     54.18674306	    -28.01990699	     30.45592428	     73.73052878	     48.24372498	      0.00000000	      0.00000000	     62.18048077	    -38.78748614	     50.14363488	     77.68682016	     51.20310942	      0.00000000	      0.00000000
      7.51000000	    -18.62121857	     -5.36217359	      4.27908049	      0.37602494	      1.18428383	     -0.22574988	      0.00000000	      0.50000000	      0.00000000	      0.25000000	     62.12180213	     -9.21320625	     -5.30349193	    103.38119883	      1.80434230	     -5.18046141	     -1.69100640	      0.00000000	      0.00000000	     43.86576713	     -7.79344501	      2.20191062	     44.65133137	      0.77931275	      3.67138751	     -2.19343972	      0.00000000	      0.00000000	    -57.95774955	      6.03745582	      1.10259575	     55.61122194	    -27.80157103	     33.00755919	     73.08100628	     48.45946364	      0.00000000	      0.00000000	     59.63572736	    -39.74743529	     46.96538906	     79.17761969	     51.15332554	      0.00000000	      0.00000000
      7.51500000	    -18.63099758	     -5.59788951	      3.96034897	      0.37569722	      1.18345857	     -0.22585655	      0.00000000	      0.50000000	      0.00000000	      0.25000000	     63.38547486	     -8.87537117	     -5.03830236	    104.88896246	      1.83065774	     -3.42662261	     -1.23744287	      0.00000000	      0.00000000	     42.62712756	     -8.28798798	      1.80945624	     43.09832574	      0.75220769	      2.50939045	     -2.11318460	      0.00000000	      0.00000000	    -57.87293849	      6.21383097	      1.41938206	     55.74828940	    -27.73238484	     33.04536000	     73.07284688	     48.46897936	      0.00000000	      0.00000000	     59.42590066	    -39.92034477	     46.88874676	     79.15130801	     51.14547285	      0.00000000	      0.00000000
      7.52000000	    -18.73804394	     -6.06504614	      3.75341648	      0.37501839	      1.18252032	     -0.22660283	      0.00000000	      0.50000000	      0.00000000	      0.25000000	     64.69645637	     -8.62436509	     -5.19601728	    106.21067401	      1.85372596	     -2.21092229	     -1.45601118	      0.00000000	      0.00000000	     41.68454394	     -8.82796531	      1.76752639	     41.77288591	      0.72907440	      1.44971364	     -1.71882118	      0.00000000	      0.00000000	    -57.77549404	      6.72971520	      1.93633838	     56.06727547	    -27.73855076	     32.99786702	     73.11872125	     48.46947119	      0.00000000	      0.00000000	     59.27791832	    -40.03351633	     46.85410086	     79.12711318	     51.14096119	      0.00000000	      0.00000000
      7.52500000	    -18.71813521	     -6.12331005	      3.35629125	      0.37472983	      1.18206472	     -0.22641364	      0.00000000	      0.50000000	      0.00000000	      0.25000000	     65.94136400	     -8.38690078	     -4.83810731	    107.50921592	      1.87638979	     -0.69245152	     -0.79884262	      0.00000000	      0.00000000	     40.44449746	     -9.27033604	      1.05484260	     40.39567338	      0.70503750	      0.01353424	     -1.64562544	      0.00000000	      0.00000000	    -57.79509091	      6.69558809	      2.14789160	     56.36045371	    -27.82445210	     33.33531383	     73.16844265	     48.52818609	      0.00000000	      0.00000000	     58.70199478	    -39.97710567	     46.14099850	     79.12473312	     51.07090204	      0.00000000	      0.00000000
      7.53000000	    -18.82216645	     -6.38688151	      2.88612983	      0.37424317	      1.18161235	     -0.22642935	      0.00000000	      0.50000000	      0.00000000	      0.25000000	     67.28618752	     -8.01950645	     -4.74596811	    108.58539607	      1.89517268	      0.22341584	     -0.77611421	      0.00000000	      0.00000000	     39.48434411	     -9.90849604	      0.42245554	     39.25939839	      0.68520576	     -1.23668598	     -1.21963250	      0.00000000	      0.00000000	    -57.69916584	      6.82287726	      2.68002924	     56.64043923	    -27.84279300	     33.38447086	     73.18491265	     48.53759228	      0.00000000	      0.00000000	     58.42914507	    -40.03116774	     45.97115068	     79.12960306	     51.05731977	      0.00000000	      0.00000000
      7.53500000	    -18.97172888	     -6.65800515	      2.61842534	      0.37356286	      1.18124738	     -0.22638804	      0.00000000	      0.50000000	      0.00000000	      0.25000000	     68.64480376	     -7.83049528	     -4.82022377	    109.55886034	      1.91216284	      1.09780093	     -0.75065853	      0.00000000	      0.00000000	     38.67208734	    -10.42717269	      0.03254281	     38.21453187	      0.66696940	     -2.40818768	     -0.73867001	      0.00000000	      0.00000000	    -57.68578354	      7.05138410	      3.03980880	     56.93280042	    -27.84817454	     33.37637893	     73.23380998	     48.54396630	      0.00000000	      0.00000000	     58.30107118	    -40.03669529	     45.84090957	     79.09987686	     51.04012712	      0.00000000	      0.00000000
      7.54000000	    -18.98639496	     -6.57986466	      1.73770228	      0.37319082	      1.18143402	     -0.22434679	      0.00000000	      0.50000000	      0.00000000	      0.25000000	     69.94036199	     -6.99532618	     -4.34031081	    110.41179165	      1.92704930	      2.11274404	     -0.65846017	      0.00000000	      0.00000000	     37.48323900	    -11.20007927	     -1.43299180	     37.18096140	      0.64893020	     -3.62765282	     -0.23653670	      0.00000000	      0.00000000	    -57.73824368	      6.42872052	      3.49387846	     57.08841741	    -27.75976452	     33.47567256	     73.26000031	     48.56190034	      0.00000000	      0.00000000	     58.14070740	    -40.00762668	     45.52239042	     79.01355062	     50.99342098	      0.00000000	      0.00000000
      7.54500000	    -19.08268436	     -6.74934129	      1.48865993	      0.37234778	      1.18150693	     -0.22423997	      0.00000000	      0.50000000	      0.00000000	      0.25000000	     71.09066410	     -6.76779348	     -4.39826130	    111.06741660	      1.93849211	      3.19581166	     -0.88486697	      0.00000000	      0.00000000	     36.70904009	    -11.61988169	     -1.89234048	     36.38537101	      0.63504452	     -4.72507893	      0.24358590	      0.00000000	      0.00000000	    -57.74931363	      6.59502113	      3.81194543	     57.41084281	    -27.74065277	     33.43096593	     73.32696090	     48.56672574	      0.00000000	      0.00000000	     58.09026432	    -39.96267253	     45.38533997	     78.96792528	     50.97147563	      0.00000000	      0.00000000
      7.55000000	    -19.05647589	     -6.61223619	      1.03193837	      0.37195922	      1.18195541	     -0.22373507	      0.00000000	      0.50000000	      0.00000000	      0.25000000	     72.21193046	     -6.57420964	     -4.06008494	    111.64527402	      1.94857763	      4.00710537	     -0.50008018	      0.00000000	      0.00000000	     35.65706698	    -11.94694471	     -2.92149146	     35.58796721	      0.62112720	     -5.85719078	      0.70365525	      0.00000000	      0.00000000	    -57.85497346	      6.36301759	      4.05322810	     57.57254601	    -27.71555180	     33.48512447	     73.38311348	     48.58748175	      0.00000000	      0.00000000	     57.89698455	    -39.69606147	     44.97451371	     78.74871816	     50.89202115	      0.00000000	      0.00000000
      7.55500000	    -19.20145927	     -6.67147425	      0.57180839	      0.37121356	      1.18242032	     -0.22321132	      0.00000000	      0.50000000	      0.00000000	      0.25000000	     73.36032213	     -6.19444673	     -3.99709313	    112.00103441	      1.95478682	      4.85728308	     -0.52183346	      0.00000000	      0.00000000	     34.93752611	    -12.40612082	     -3.71302346	     34.96536855	      0.61026081	     -6.98205684	      1.11593780	      0.00000000	      0.00000000	    -57.82662316	      6.29212778	      4.41188087	     57.79061806	    -27.67551139	     33.49006841	     73.47768647	     48.60869026	      0.00000000	      0.00000000	     57.71020168	    -39.44180490	     44.58198841	     78.51476698	     50.81297505	      0.00000000	      0.00000000
